<?xml version="1.0" encoding="utf-8"?>
<!-- Generator: Adobe Illustrator 23.0.3, SVG Export Plug-In . SVG Version: 6.00 Build 0)  -->
<svg version="1.1" id="레이어_1" xmlns="http://www.w3.org/2000/svg" xmlns:xlink="http://www.w3.org/1999/xlink" x="0px"
	 y="0px" viewBox="0 0 252 68.6" style="enable-background:new 0 0 252 68.6;" xml:space="preserve">
<style type="text/css">
	.st0{fill:#ED7700;}
	.st1{fill:#FFFFFF;}
</style>
<g>
	<polygon class="st0" points="85.9,15.7 83.1,15.7 94,0 96.8,0 	"/>
	<polygon class="st0" points="117.2,15.7 114.4,15.7 125.4,0 128.2,0 	"/>
	<polygon class="st0" points="151.8,15.7 149,15.7 159.9,0 162.7,0 	"/>
	<path class="st1" d="M64.8,19.2h5.1v5.1h5.3V29H59.4v-4.8h5.4V19.2z M72.8,32.2c1.5,1.4,2.2,3.2,2.2,5.2s-0.7,3.7-2.2,5.2
		c-1.5,1.4-3.3,2.1-5.4,2.1s-3.8-0.7-5.3-2.1c-1.5-1.4-2.2-3.2-2.2-5.2c0-2.1,0.7-3.8,2.2-5.2c1.5-1.4,3.3-2.1,5.3-2.1
		C69.5,30.1,71.3,30.8,72.8,32.2z M69.1,39.2c0.5-0.5,0.7-1.1,0.7-1.7c0-0.7-0.2-1.2-0.7-1.7S68,35,67.4,35c-0.7,0-1.3,0.2-1.7,0.7
		c-0.5,0.5-0.7,1.1-0.7,1.7c0,0.7,0.2,1.2,0.7,1.7s1.1,0.7,1.7,0.7C68,39.9,68.6,39.7,69.1,39.2z M83.1,39.9v4.8h-5.2V24.1h5.2V35
		h2.8V24.1H91v20.6h-5.1v-4.8H83.1z"/>
	<path class="st1" d="M136.3,46.6v-4.9h24.9v4.9H136.3z M154.3,26c1.5,1.5,2.3,3.2,2.3,5.3s-0.8,3.8-2.3,5.3s-3.3,2.2-5.5,2.2
		c-2.1,0-4-0.7-5.5-2.2s-2.3-3.3-2.3-5.3c0-2.1,0.7-3.8,2.3-5.3c1.5-1.5,3.3-2.2,5.5-2.2S152.8,24.5,154.3,26z M150.6,33.1
		c0.5-0.5,0.8-1.1,0.8-1.8c0-0.7-0.3-1.3-0.8-1.8s-1.1-0.8-1.8-0.8s-1.3,0.3-1.8,0.8s-0.7,1.1-0.7,1.8s0.2,1.3,0.7,1.8
		s1.1,0.7,1.8,0.7S150.1,33.6,150.6,33.1z M141.5,49.4v14.7h14.7V49.4H141.5z M151.3,59.1h-4.8v-4.8h4.8V59.1z"/>
	<path class="st1" d="M169.9,46.6v-4.9h24.9v4.9H185v4.9h-5.2v-4.9H169.9z M174,29v-4.8h16.8V29h-2.5v5.2h2.5v4.7H174v-4.7h2.4V29
		H174z M181.2,34.1h2.4V29h-2.4V34.1z"/>
	<path class="st1" d="M203.6,46.5v-4.9h24.9v4.9H203.6z M223.3,24.1V29h-9.6v5h9.6v4.8h-14.8V24.1H223.3z"/>
	<g>
		<path class="st1" d="M99.7,24.1v14.7h14.7V24.1H99.7z M109.4,33.9h-4.8v-4.8h4.8V33.9z"/>
		<polygon class="st1" points="122.4,38.8 117.2,38.8 117.2,18.3 122.4,18.3 122.4,29.1 126.9,29.1 126.9,34 122.4,34 		"/>
		<polygon class="st1" points="127.7,41.7 127.7,53.5 122.4,53.5 122.4,46.4 117.2,46.4 117.2,41.7 		"/>
		<polygon class="st1" points="114.4,41.6 114.4,53.6 109.4,53.6 109.4,56.1 114.4,56.1 114.4,61 104.6,61 104.6,48.9 109.3,48.9 
			109.3,46.5 104.6,46.5 104.6,41.6 		"/>
	</g>
	<path class="st0" d="M58.1,68.6L58.1,68.6c-13,0-25.1-5-34.3-14.2c-0.4-0.4-0.4-1.1,0-1.6c0.4-0.4,1.1-0.4,1.6,0
		c8.7,8.7,20.4,13.6,32.7,13.6c12.4,0,24-4.8,32.7-13.6c0.4-0.4,1.1-0.4,1.6,0c0.4,0.4,0.4,1.1,0,1.6C83.3,63.6,71.1,68.6,58.1,68.6
		z"/>
	<path class="st0" d="M47.3,39.2c0.5-0.5,0.7-1.1,0.7-1.7c0-0.7-0.2-1.2-0.7-1.7s-1.1-0.7-1.7-0.7c-0.7,0-1.2,0.2-1.7,0.7
		s-0.7,1.1-0.7,1.7c0,0.7,0.2,1.2,0.7,1.7s1.1,0.7,1.7,0.7S46.8,39.7,47.3,39.2z"/>
</g>
</svg>
